<svg width="410" height="144" viewBox="0 0 410 144" fill="none" xmlns="http://www.w3.org/2000/svg"><path d="M52.3125 66.9688H39.9844L37.6406 74H30.1641L42.8672 39.875H49.3828L62.1562 74H54.6797L52.3125 66.9688ZM41.8828 61.2734H50.4141L46.125 48.5L41.8828 61.2734ZM65.3438 74V39.875H77.2969C81.4375 39.875 84.5781 40.6719 86.7188 42.2656C88.8594 43.8438 89.9297 46.1641 89.9297 49.2266C89.9297 50.8984 89.5 52.375 88.6406 53.6562C87.7812 54.9219 86.5859 55.8516 85.0547 56.4453C86.8047 56.8828 88.1797 57.7656 89.1797 59.0938C90.1953 60.4219 90.7031 62.0469 90.7031 63.9688C90.7031 67.25 89.6562 69.7344 87.5625 71.4219C85.4688 73.1094 82.4844 73.9688 78.6094 74H65.3438ZM72.375 59.1406V68.3516H78.3984C80.0547 68.3516 81.3438 67.9609 82.2656 67.1797C83.2031 66.3828 83.6719 65.2891 83.6719 63.8984C83.6719 60.7734 82.0547 59.1875 78.8203 59.1406H72.375ZM72.375 54.1719H77.5781C81.125 54.1094 82.8984 52.6953 82.8984 49.9297C82.8984 48.3828 82.4453 47.2734 81.5391 46.6016C80.6484 45.9141 79.2344 45.5703 77.2969 45.5703H72.375V54.1719ZM122.789 62.6328C122.523 66.3047 121.164 69.1953 118.711 71.3047C116.273 73.4141 113.055 74.4688 109.055 74.4688C104.68 74.4688 101.234 73 98.7188 70.0625C96.2188 67.1094 94.9688 63.0625 94.9688 57.9219V55.8359C94.9688 52.5547 95.5469 49.6641 96.7031 47.1641C97.8594 44.6641 99.5078 42.75 101.648 41.4219C103.805 40.0781 106.305 39.4062 109.148 39.4062C113.086 39.4062 116.258 40.4609 118.664 42.5703C121.07 44.6797 122.461 47.6406 122.836 51.4531H115.805C115.633 49.25 115.016 47.6562 113.953 46.6719C112.906 45.6719 111.305 45.1719 109.148 45.1719C106.805 45.1719 105.047 46.0156 103.875 47.7031C102.719 49.375 102.125 51.9766 102.094 55.5078V58.0859C102.094 61.7734 102.648 64.4688 103.758 66.1719C104.883 67.875 106.648 68.7266 109.055 68.7266C111.227 68.7266 112.844 68.2344 113.906 67.25C114.984 66.25 115.602 64.7109 115.758 62.6328H122.789Z" fill="#000"/>
<path d="M217.836 62.6328C217.57 66.3047 216.211 69.1953 213.758 71.3047C211.32 73.4141 208.102 74.4688 204.102 74.4688C199.727 74.4688 196.281 73 193.766 70.0625C191.266 67.1094 190.016 63.0625 190.016 57.9219V55.8359C190.016 52.5547 190.594 49.6641 191.75 47.1641C192.906 44.6641 194.555 42.75 196.695 41.4219C198.852 40.0781 201.352 39.4062 204.195 39.4062C208.133 39.4062 211.305 40.4609 213.711 42.5703C216.117 44.6797 217.508 47.6406 217.883 51.4531H210.852C210.68 49.25 210.062 47.6562 209 46.6719C207.953 45.6719 206.352 45.1719 204.195 45.1719C201.852 45.1719 200.094 46.0156 198.922 47.7031C197.766 49.375 197.172 51.9766 197.141 55.5078V58.0859C197.141 61.7734 197.695 64.4688 198.805 66.1719C199.93 67.875 201.695 68.7266 204.102 68.7266C206.273 68.7266 207.891 68.2344 208.953 67.25C210.031 66.25 210.648 64.7109 210.805 62.6328H217.836ZM250.227 74H243.195V59.375H229.484V74H222.453V39.875H229.484V53.7031H243.195V39.875H250.227V74ZM276.078 66.9688H263.75L261.406 74H253.93L266.633 39.875H273.148L285.922 74H278.445L276.078 66.9688ZM265.648 61.2734H274.18L269.891 48.5L265.648 61.2734ZM316.859 74H309.828L296.141 51.5469V74H289.109V39.875H296.141L309.852 62.375V39.875H316.859V74ZM350 69.6875C348.734 71.2031 346.945 72.3828 344.633 73.2266C342.32 74.0547 339.758 74.4688 336.945 74.4688C333.992 74.4688 331.398 73.8281 329.164 72.5469C326.945 71.25 325.227 69.375 324.008 66.9219C322.805 64.4688 322.188 61.5859 322.156 58.2734V55.9531C322.156 52.5469 322.727 49.6016 323.867 47.1172C325.023 44.6172 326.68 42.7109 328.836 41.3984C331.008 40.0703 333.547 39.4062 336.453 39.4062C340.5 39.4062 343.664 40.375 345.945 42.3125C348.227 44.2344 349.578 47.0391 350 50.7266H343.156C342.844 48.7734 342.148 47.3438 341.07 46.4375C340.008 45.5312 338.539 45.0781 336.664 45.0781C334.273 45.0781 332.453 45.9766 331.203 47.7734C329.953 49.5703 329.32 52.2422 329.305 55.7891V57.9688C329.305 61.5469 329.984 64.25 331.344 66.0781C332.703 67.9062 334.695 68.8203 337.32 68.8203C339.961 68.8203 341.844 68.2578 342.969 67.1328V61.25H336.57V56.0703H350V69.6875ZM376.25 59.2109H362.75V68.3516H378.594V74H355.719V39.875H378.547V45.5703H362.75V53.7031H376.25V59.2109Z" fill="#000"/>
<path d="M155.322 58L182.5 5H405V111H182.5L155.322 58ZM155.322 58L127 111H5V5H127L155.322 58Z" stroke="#6F0652" stroke-width="10"/>
<path d="M50.0234 143H47.0586L39.4531 130.895V143H36.4883V125.938H39.4531L47.082 138.09V125.938H50.0234V143ZM63.5 135.383H56.4922V140.633H64.6836V143H53.5273V125.938H64.6016V128.328H56.4922V133.039H63.5V135.383ZM72.9688 132.102L76.5547 125.938H79.9766L74.8203 134.398L80.0938 143H76.6367L72.9688 136.742L69.2891 143H65.8438L71.1289 134.398L65.9609 125.938H69.3828L72.9688 132.102ZM94.6133 128.328H89.293V143H86.3516V128.328H81.0781V125.938H94.6133V128.328ZM111.055 138.605C111.055 137.855 110.789 137.277 110.258 136.871C109.734 136.465 108.785 136.055 107.41 135.641C106.035 135.227 104.941 134.766 104.129 134.258C102.574 133.281 101.797 132.008 101.797 130.438C101.797 129.062 102.355 127.93 103.473 127.039C104.598 126.148 106.055 125.703 107.844 125.703C109.031 125.703 110.09 125.922 111.02 126.359C111.949 126.797 112.68 127.422 113.211 128.234C113.742 129.039 114.008 129.934 114.008 130.918H111.055C111.055 130.027 110.773 129.332 110.211 128.832C109.656 128.324 108.859 128.07 107.82 128.07C106.852 128.07 106.098 128.277 105.559 128.691C105.027 129.105 104.762 129.684 104.762 130.426C104.762 131.051 105.051 131.574 105.629 131.996C106.207 132.41 107.16 132.816 108.488 133.215C109.816 133.605 110.883 134.055 111.688 134.562C112.492 135.062 113.082 135.641 113.457 136.297C113.832 136.945 114.02 137.707 114.02 138.582C114.02 140.004 113.473 141.137 112.379 141.98C111.293 142.816 109.816 143.234 107.949 143.234C106.715 143.234 105.578 143.008 104.539 142.555C103.508 142.094 102.703 141.461 102.125 140.656C101.555 139.852 101.27 138.914 101.27 137.844H104.234C104.234 138.812 104.555 139.562 105.195 140.094C105.836 140.625 106.754 140.891 107.949 140.891C108.98 140.891 109.754 140.684 110.27 140.27C110.793 139.848 111.055 139.293 111.055 138.605ZM128.949 128.328H123.629V143H120.688V128.328H115.414V125.938H128.949V128.328ZM139.344 139.027H132.734L131.352 143H128.27L134.715 125.938H137.375L143.832 143H140.738L139.344 139.027ZM133.566 136.637H138.512L136.039 129.559L133.566 136.637ZM158.598 140.785C157.98 141.59 157.125 142.199 156.031 142.613C154.938 143.027 153.695 143.234 152.305 143.234C150.875 143.234 149.609 142.91 148.508 142.262C147.406 141.613 146.555 140.688 145.953 139.484C145.359 138.273 145.051 136.863 145.027 135.254V133.918C145.027 131.34 145.645 129.328 146.879 127.883C148.113 126.43 149.836 125.703 152.047 125.703C153.945 125.703 155.453 126.172 156.57 127.109C157.688 128.047 158.359 129.398 158.586 131.164H155.68C155.352 129.109 154.16 128.082 152.105 128.082C150.777 128.082 149.766 128.562 149.07 129.523C148.383 130.477 148.027 131.879 148.004 133.73V135.043C148.004 136.887 148.391 138.32 149.164 139.344C149.945 140.359 151.027 140.867 152.41 140.867C153.926 140.867 155.004 140.523 155.645 139.836V136.496H152.129V134.246H158.598V140.785ZM171.828 135.383H164.82V140.633H173.012V143H161.855V125.938H172.93V128.328H164.82V133.039H171.828V135.383ZM194.422 137.445C194.25 139.266 193.578 140.688 192.406 141.711C191.234 142.727 189.676 143.234 187.73 143.234C186.371 143.234 185.172 142.914 184.133 142.273C183.102 141.625 182.305 140.707 181.742 139.52C181.18 138.332 180.887 136.953 180.863 135.383V133.789C180.863 132.18 181.148 130.762 181.719 129.535C182.289 128.309 183.105 127.363 184.168 126.699C185.238 126.035 186.473 125.703 187.871 125.703C189.754 125.703 191.27 126.215 192.418 127.238C193.566 128.262 194.234 129.707 194.422 131.574H191.469C191.328 130.348 190.969 129.465 190.391 128.926C189.82 128.379 188.98 128.105 187.871 128.105C186.582 128.105 185.59 128.578 184.895 129.523C184.207 130.461 183.855 131.84 183.84 133.66V135.172C183.84 137.016 184.168 138.422 184.824 139.391C185.488 140.359 186.457 140.844 187.73 140.844C188.895 140.844 189.77 140.582 190.355 140.059C190.941 139.535 191.312 138.664 191.469 137.445H194.422ZM206.633 139.027H200.023L198.641 143H195.559L202.004 125.938H204.664L211.121 143H208.027L206.633 139.027ZM200.855 136.637H205.801L203.328 129.559L200.855 136.637ZM216.031 136.66V143H213.066V125.938H219.594C221.5 125.938 223.012 126.434 224.129 127.426C225.254 128.418 225.816 129.73 225.816 131.363C225.816 133.035 225.266 134.336 224.164 135.266C223.07 136.195 221.535 136.66 219.559 136.66H216.031ZM216.031 134.281H219.594C220.648 134.281 221.453 134.035 222.008 133.543C222.562 133.043 222.84 132.324 222.84 131.387C222.84 130.465 222.559 129.73 221.996 129.184C221.434 128.629 220.66 128.344 219.676 128.328H216.031V134.281ZM231.547 143H228.594V125.938H231.547V143ZM247.168 128.328H241.848V143H238.906V128.328H233.633V125.938H247.168V128.328ZM257.562 139.027H250.953L249.57 143H246.488L252.934 125.938H255.594L262.051 143H258.957L257.562 139.027ZM251.785 136.637H256.73L254.258 129.559L251.785 136.637ZM266.961 140.633H274.707V143H263.996V125.938H266.961V140.633Z" fill="#000"/>
</svg>
